<?xml version="1.0" standalone="no"?>
<!DOCTYPE svg PUBLIC "-//W3C//DTD SVG 20010904//EN"
 "http://www.w3.org/TR/2001/REC-SVG-20010904/DTD/svg10.dtd">
<svg version="1.0" xmlns="http://www.w3.org/2000/svg"
 width="500.000000pt" height="500.000000pt" viewBox="0 0 500.000000 500.000000"
 preserveAspectRatio="xMidYMid meet">

<g transform="translate(0.000000,500.000000) scale(0.100000,-0.100000)"
fill="#000000" stroke="none">
<path d="M0 2500 l0 -2500 2500 0 2500 0 0 2500 0 2500 -2500 0 -2500 0 0
-2500z m2416 1491 c-4 -5 7 -4 24 2 36 14 47 5 32 -28 -13 -29 -6 -32 26 -9
12 8 19 20 16 26 -4 7 -2 8 4 4 7 -4 12 -2 12 3 0 15 46 12 95 -4 l40 -14 -40
2 c-32 2 -45 -3 -66 -26 -28 -29 -51 -35 -82 -22 -16 7 -18 4 -15 -20 3 -27 8
-29 72 -42 77 -16 196 -66 196 -83 0 -22 -28 -20 -110 9 -102 35 -165 46 -174
32 -7 -10 4 -14 71 -25 17 -3 68 -19 112 -36 64 -25 79 -35 78 -50 -2 -26 -4
-26 -109 11 -59 20 -103 29 -131 27 -47 -4 -38 -9 43 -28 87 -20 190 -61 190
-76 0 -25 -20 -25 -102 2 -103 32 -167 44 -175 31 -6 -11 17 -28 29 -21 4 3
45 -6 90 -20 138 -40 155 -49 138 -75 -6 -11 -28 -8 -110 18 -104 31 -170 40
-170 21 0 -5 8 -11 18 -12 52 -4 219 -53 239 -69 19 -16 16 -39 -4 -39 -10 0
-52 11 -93 24 -100 32 -184 43 -178 25 3 -8 16 -15 29 -15 13 -1 31 -4 39 -7
26 -10 194 -58 207 -59 17 -2 -8 -38 -28 -38 -8 0 -53 11 -99 25 -82 25 -170
33 -170 17 0 -5 33 -15 73 -22 117 -21 202 -52 202 -75 0 -24 -18 -23 -115 5
-36 11 -96 22 -135 25 -68 6 -69 6 -42 -10 15 -9 36 -15 45 -14 9 1 24 0 32
-3 8 -3 56 -16 105 -28 102 -25 118 -35 92 -55 -15 -11 -28 -10 -80 2 -75 19
-137 31 -194 39 -46 7 -52 0 -32 -38 8 -16 8 -22 -2 -28 -10 -7 -10 -14 0 -37
7 -16 13 -39 14 -52 2 -25 25 -50 53 -55 11 -3 36 -11 56 -20 43 -18 78 -21
78 -5 0 5 -4 7 -10 4 -13 -8 -94 28 -137 61 -27 20 -33 32 -33 62 0 46 9 61
39 64 22 3 24 -1 27 -44 2 -26 8 -56 13 -67 13 -23 81 -57 133 -66 26 -5 35
-11 31 -21 -3 -8 1 -14 10 -14 9 0 19 -5 23 -11 5 -9 -11 -10 -58 -5 l-65 7
-6 -33 c-3 -18 -9 -48 -13 -67 -6 -27 -4 -32 6 -26 9 5 11 4 6 -3 -4 -6 1 -26
10 -43 15 -29 15 -31 0 -26 -33 13 -15 -23 22 -42 32 -17 34 -20 18 -27 -10
-4 -31 -3 -47 3 -27 10 -27 10 -18 -14 5 -13 9 -44 9 -69 l0 -44 38 15 c70 30
108 80 203 269 l90 178 -22 24 c-14 15 -20 30 -16 44 7 27 -16 37 -49 21 -22
-10 -26 -8 -35 16 -8 21 -4 56 15 153 16 79 24 139 20 162 -5 29 -3 39 9 44 9
3 13 12 11 19 -8 20 14 159 26 163 5 2 10 8 10 13 0 6 -4 7 -10 4 -6 -3 -10 5
-10 19 0 30 -83 119 -132 142 l-33 15 40 -5 c23 -3 69 -19 102 -36 48 -24 68
-42 91 -78 30 -50 53 -107 46 -115 -2 -2 2 -10 11 -17 8 -7 15 -21 15 -32 0
-16 -3 -17 -20 -8 -16 8 -20 8 -20 -3 0 -8 7 -20 15 -27 8 -7 15 -21 15 -32 0
-16 -3 -17 -20 -8 -16 9 -20 8 -20 -5 0 -8 5 -15 10 -15 6 0 10 -12 10 -26 0
-19 -4 -25 -15 -21 -8 4 -17 2 -20 -4 -4 -5 1 -12 9 -15 9 -3 16 -15 16 -26 0
-15 -5 -19 -20 -15 -24 6 -25 -1 -5 -27 21 -28 19 -36 -10 -36 -30 0 -31 -4
-4 -31 23 -23 20 -31 -14 -35 -12 -1 -24 -3 -27 -3 -3 -1 5 -9 18 -19 30 -23
21 -51 -14 -44 -32 6 -31 -14 1 -22 24 -6 36 -26 15 -26 -5 0 -10 -4 -10 -10
0 -5 7 -7 15 -3 9 3 24 -2 35 -12 19 -17 21 -16 59 18 92 83 260 136 481 151
67 5 79 4 58 -5 -20 -7 -28 -18 -28 -35 0 -19 5 -24 28 -24 45 -1 5 -17 -72
-28 -37 -6 -71 -13 -73 -16 -7 -7 22 -61 33 -60 68 10 165 14 161 6 -4 -5 -41
-12 -83 -16 -43 -3 -80 -8 -82 -11 -3 -2 2 -21 9 -42 l15 -38 74 2 c64 1 69 0
35 -7 -22 -5 -54 -9 -72 -9 l-32 -1 16 -46 16 -46 58 6 c39 5 59 3 59 -4 0 -5
-19 -10 -41 -10 -55 0 -252 -29 -262 -39 -4 -4 2 -16 13 -26 11 -10 20 -23 20
-28 0 -6 -13 1 -28 16 -34 33 -40 33 -101 2 -75 -37 -125 -103 -216 -285 -91
-181 -113 -214 -175 -267 -40 -35 -59 -40 -188 -56 -13 -2 -28 -9 -33 -17 -8
-12 -12 -12 -16 -2 -2 6 -9 9 -14 6 -6 -3 -17 0 -26 8 -11 9 -56 13 -162 13
-138 0 -149 -2 -203 -27 -69 -32 -143 -99 -205 -186 l-46 -64 32 -25 c33 -26
41 -60 15 -70 -8 -3 -23 2 -32 10 -19 20 -9 35 13 17 12 -10 15 -10 15 3 0 9
-10 23 -22 31 -25 18 -41 9 -64 -36 -15 -29 -38 -40 -28 -13 7 18 -17 20 -34
3 -9 -9 -12 -9 -12 0 0 7 -7 12 -15 12 -22 0 -64 51 -65 78 0 27 -8 28 -27 5
-12 -16 -13 -16 -8 7 5 20 0 28 -25 42 -53 30 -67 98 -20 98 12 0 35 -13 51
-29 16 -16 31 -26 33 -23 2 4 20 48 41 97 83 196 169 317 261 367 74 40 157
51 322 44 114 -6 142 -5 142 6 0 7 -5 53 -10 102 -10 81 -13 92 -40 114 -29
24 -39 55 -21 66 5 3 12 27 15 53 4 27 9 55 12 64 5 16 -39 41 -77 44 -10 1
-34 14 -53 29 -20 15 -36 24 -36 20 0 -4 -13 5 -30 21 -25 24 -30 36 -30 77 0
47 14 66 23 31 2 -12 7 -6 14 17 5 19 7 37 3 40 -4 3 -9 13 -13 23 -5 12 -1
17 12 17 10 0 21 7 25 15 3 9 0 15 -9 15 -23 0 -18 37 5 43 23 6 27 27 5 27
-8 0 -15 9 -15 20 0 13 7 20 19 20 10 0 21 7 25 15 3 9 0 15 -9 15 -9 0 -15 9
-15 21 0 16 5 20 20 16 15 -4 20 0 20 14 0 10 -6 19 -14 19 -20 0 -29 30 -11
35 51 16 51 17 28 26 -30 11 -29 25 3 46 26 16 26 17 5 24 -26 10 -19 32 17
49 l27 13 -23 6 c-32 8 -30 23 4 42 19 10 30 25 32 43 2 15 10 30 17 32 8 3
11 12 9 19 -6 14 31 39 44 31 4 -3 14 -1 22 5 19 11 43 12 36 0z m-130 -58
c-13 -24 -15 -25 -16 -7 0 11 5 25 12 32 19 19 21 6 4 -25z m421 -435 c-3 -8
-6 -5 -6 6 -1 11 2 17 5 13 3 -3 4 -12 1 -19z m-20 -105 c-3 -10 -5 -4 -5 12
0 17 2 24 5 18 2 -7 2 -21 0 -30z m-102 -459 c19 -46 19 -54 -1 -26 -14 21
-44 31 -44 15 0 -5 9 -21 20 -38 11 -16 20 -38 20 -47 0 -21 -37 -33 -55 -18
-17 14 -20 67 -5 90 5 9 5 19 -2 27 -8 9 -7 13 2 13 8 0 11 3 8 6 -4 3 -16 1
-27 -6 -12 -6 -21 -7 -21 -2 0 16 13 22 52 22 34 0 39 -4 53 -36z m-91 -1281
c17 -51 33 -93 36 -93 3 0 19 42 36 93 27 83 33 92 55 92 l24 0 3 -219 c1
-121 -1 -223 -6 -228 -5 -5 -16 -6 -25 -2 -14 5 -17 27 -19 147 l-3 142 -28
-82 c-16 -46 -32 -83 -37 -83 -5 0 -21 37 -37 83 l-28 82 -3 -142 c-2 -117 -5
-142 -18 -147 -9 -3 -20 -4 -25 0 -11 6 -12 437 -2 448 4 4 16 6 27 4 15 -2
27 -24 50 -95z m-200 70 c14 -48 77 -396 74 -411 -2 -9 -12 -17 -23 -17 -16 0
-22 10 -29 48 l-10 48 -50 -3 -50 -3 -11 -45 c-8 -35 -16 -46 -33 -48 -16 -3
-22 2 -22 16 0 25 78 410 85 423 11 17 63 10 69 -8z m570 8 c11 -18 -6 -40
-35 -46 l-29 -7 0 -189 0 -189 -31 0 -31 0 7 190 7 190 -31 0 c-28 0 -31 3
-31 30 l0 30 84 0 c47 0 87 -4 90 -9z m-726 -553 c7 -7 12 -21 12 -33 0 -30
-19 -45 -57 -45 -30 0 -33 -3 -33 -30 0 -16 -4 -30 -10 -30 -6 0 -10 32 -10
75 l0 75 43 0 c24 0 48 -5 55 -12z m132 -3 c14 -16 6 -65 -10 -65 -6 0 -4 -13
5 -30 18 -34 18 -40 5 -40 -5 0 -16 14 -25 30 -9 17 -22 30 -30 30 -10 0 -15
-10 -15 -30 0 -20 -5 -30 -15 -30 -12 0 -15 15 -15 75 l0 75 44 0 c26 0 48 -6
56 -15z m130 5 c0 -5 -16 -10 -35 -10 -28 0 -35 -4 -35 -20 0 -16 7 -20 30
-20 17 0 30 -4 30 -10 0 -5 -13 -10 -30 -10 -25 0 -30 -4 -30 -25 0 -22 4 -25
35 -25 19 0 35 -4 35 -10 0 -5 -22 -10 -50 -10 l-50 0 0 75 0 75 50 0 c28 0
50 -4 50 -10z m106 2 c16 -10 34 -48 34 -70 0 -36 -38 -72 -76 -72 l-34 0 0
75 0 75 33 0 c17 0 37 -4 43 -8z m84 -67 c0 -43 -4 -75 -10 -75 -6 0 -10 32
-10 75 0 43 4 75 10 75 6 0 10 -32 10 -75z m60 43 l0 -32 33 32 c44 42 55 41
21 -3 -27 -35 -27 -36 -7 -58 41 -47 47 -57 32 -57 -8 0 -25 16 -39 34 -29 39
-40 38 -40 -5 0 -19 -5 -29 -15 -29 -12 0 -15 15 -15 75 0 60 3 75 15 75 10 0
15 -10 15 -32z m200 12 c13 -25 3 -26 -22 -3 -14 12 -24 14 -34 8 -26 -16 -20
-29 21 -51 42 -22 54 -46 35 -69 -16 -20 -74 -19 -90 0 -16 20 -5 32 14 16 19
-16 61 -10 61 8 0 7 -15 21 -34 30 -44 21 -59 44 -42 65 20 23 78 21 91 -4z
m60 -55 c0 -43 -4 -75 -10 -75 -6 0 -10 32 -10 75 0 43 4 75 10 75 6 0 10 -32
10 -75z m-650 -155 c13 -24 -4 -28 -26 -5 -19 19 -29 19 -48 -1 -20 -19 -21
-78 -2 -94 20 -16 60 -9 64 12 2 11 -5 18 -20 20 -20 4 -21 5 -5 12 25 12 47
0 47 -27 0 -32 -18 -47 -56 -47 -23 0 -38 7 -48 22 -21 29 -20 87 1 110 23 25
79 24 93 -2z m135 10 c-3 -5 -22 -10 -41 -10 -27 0 -34 -4 -34 -20 0 -15 7
-20 29 -20 17 0 33 -4 36 -10 4 -6 -8 -10 -29 -10 -32 0 -36 -3 -36 -25 0 -22
4 -25 34 -25 19 0 38 -4 41 -10 4 -6 -13 -10 -44 -10 l-51 0 0 75 0 75 51 0
c31 0 48 -4 44 -10z m87 -48 l38 -57 0 58 c0 31 5 57 10 57 6 0 10 -32 10 -75
0 -43 -4 -75 -10 -75 -5 0 -27 26 -47 57 l-38 57 -3 -57 c-4 -84 -22 -69 -22
18 0 93 11 96 62 17z m188 43 c14 -16 6 -65 -10 -65 -6 0 -4 -13 5 -30 18 -34
18 -40 5 -40 -5 0 -16 14 -25 30 -9 17 -22 30 -30 30 -10 0 -15 -10 -15 -30 0
-20 -5 -30 -15 -30 -12 0 -15 15 -15 75 l0 75 44 0 c26 0 48 -6 56 -15z m130
5 c0 -5 -16 -10 -35 -10 -28 0 -35 -4 -35 -20 0 -16 7 -20 30 -20 17 0 30 -4
30 -10 0 -5 -13 -10 -30 -10 -25 0 -30 -4 -30 -25 0 -22 4 -25 35 -25 19 0 35
-4 35 -10 0 -5 -22 -10 -50 -10 l-50 0 0 75 0 75 50 0 c28 0 50 -4 50 -10z
m-557 -257 c11 -29 23 -50 27 -48 4 3 16 27 26 55 27 75 44 66 44 -25 0 -43
-4 -75 -10 -75 -5 0 -10 24 -11 53 l0 52 -21 -53 c-12 -29 -25 -51 -31 -49 -6
2 -20 28 -31 58 l-21 54 -3 -57 c-4 -85 -22 -71 -22 18 0 65 2 75 16 72 10 -2
26 -26 37 -55z m159 -5 c3 -58 5 -63 27 -66 31 -5 41 12 41 76 0 28 5 52 10
52 17 0 12 -111 -7 -132 -18 -20 -63 -24 -81 -6 -14 14 -16 138 -2 138 5 0 10
-28 12 -62z m208 42 c13 -25 3 -26 -22 -3 -14 12 -24 14 -34 8 -26 -16 -20
-29 21 -51 42 -22 54 -46 35 -69 -16 -20 -74 -19 -90 0 -16 20 -5 32 14 16 19
-16 61 -10 61 8 0 7 -15 21 -34 30 -44 21 -59 44 -42 65 20 23 78 21 91 -4z
m60 -55 c0 -43 -4 -75 -10 -75 -6 0 -10 32 -10 75 0 43 4 75 10 75 6 0 10 -32
10 -75z m134 53 c16 -27 -1 -33 -22 -8 -16 20 -21 21 -41 11 -19 -10 -22 -19
-19 -59 3 -41 6 -47 27 -50 15 -3 30 3 38 14 16 22 31 9 17 -14 -15 -24 -62
-27 -85 -6 -24 22 -26 95 -3 119 21 20 73 16 88 -7z"/>
<path d="M2325 3460 c3 -5 11 -10 16 -10 6 0 7 5 4 10 -3 6 -11 10 -16 10 -6
0 -7 -4 -4 -10z"/>
<path d="M3334 3345 c-9 -23 3 -45 25 -45 23 0 35 28 20 46 -15 18 -38 18 -45
-1z"/>
<path d="M3260 3336 c0 -30 13 -46 37 -46 19 0 24 4 19 16 -3 9 -6 22 -6 30 0
8 -10 14 -25 14 -15 0 -25 -6 -25 -14z"/>
<path d="M3100 3314 c-95 -28 -153 -59 -212 -112 -55 -50 -64 -69 -42 -93 9
-10 21 -19 26 -19 5 0 35 22 66 49 31 27 85 63 120 80 34 17 62 38 62 46 0 19
43 30 67 16 24 -12 63 -4 63 14 0 52 -26 55 -150 19z"/>
<path d="M3139 3263 c-12 -15 -12 -16 4 -10 10 4 23 7 28 7 6 0 7 5 4 10 -9
15 -21 12 -36 -7z"/>
<path d="M3193 3225 c-12 -19 -19 -37 -15 -39 4 -2 29 0 56 6 42 9 47 13 42
32 -3 11 -6 24 -6 29 0 4 -12 7 -27 7 -21 -1 -34 -10 -50 -35z"/>
<path d="M3158 3243 c-10 -2 -18 -9 -18 -14 0 -15 43 -7 48 9 4 12 0 13 -30 5z"/>
<path d="M3072 3209 c-21 -8 -22 -11 -9 -24 9 -8 17 -20 19 -26 3 -8 15 -6 42
5 38 16 39 17 21 36 -20 22 -37 24 -73 9z"/>
<path d="M2140 3186 c0 -2 7 -9 15 -16 13 -11 14 -10 9 4 -5 14 -24 23 -24 12z"/>
<path d="M3004 3169 c-3 -6 1 -18 10 -27 15 -15 17 -15 32 0 19 19 11 38 -16
38 -10 0 -22 -5 -26 -11z"/>
<path d="M3213 3173 c-29 -5 -29 -7 3 -48 23 -30 29 -33 62 -28 20 3 38 7 40
8 2 2 -4 19 -12 39 -15 37 -29 41 -93 29z"/>
<path d="M2200 3162 c0 -10 26 -34 50 -47 8 -4 2 6 -14 23 -32 34 -36 37 -36
24z"/>
<path d="M3106 3140 c-70 -27 -75 -35 -44 -66 l26 -26 53 17 c71 23 75 28 53
64 -21 36 -23 36 -88 11z"/>
<path d="M2937 3112 c-33 -34 -36 -40 -22 -52 12 -10 21 -8 50 14 36 28 39 34
29 60 -9 23 -16 20 -57 -22z"/>
<path d="M2790 3071 c-16 -31 -17 -39 -5 -35 9 4 19 -3 26 -20 l12 -26 23 37
c13 21 24 40 24 43 0 3 -13 14 -30 23 l-29 18 -21 -40z"/>
<path d="M2976 3064 c-27 -24 -28 -26 -11 -44 22 -24 38 -25 70 -4 30 19 31
35 7 57 -24 22 -32 21 -66 -9z"/>
<path d="M3278 3083 c-28 -4 -36 -17 -18 -28 6 -3 10 -11 10 -17 0 -6 -11 -1
-24 11 -24 23 -25 23 -80 7 -31 -9 -56 -20 -56 -24 0 -4 12 -20 26 -36 l26
-29 90 16 c50 9 92 18 94 20 7 7 -22 81 -32 82 -5 1 -21 0 -36 -2z"/>
<path d="M2852 3007 c-29 -46 -30 -53 -16 -67 13 -13 16 -13 24 0 5 8 21 34
35 57 24 40 25 43 7 52 -15 8 -23 2 -50 -42z"/>
<path d="M2901 2973 c-30 -47 -30 -48 -11 -67 11 -11 21 -18 23 -15 2 2 18 23
36 46 33 44 34 56 1 73 -17 9 -24 4 -49 -37z"/>
<path d="M3023 2987 c-34 -26 -93 -91 -93 -104 0 -1 11 -10 25 -19 24 -16 26
-15 65 20 23 20 58 44 78 54 20 9 39 17 40 18 9 6 -44 64 -57 64 -9 0 -35 -15
-58 -33z"/>
<path d="M2740 2970 c-11 -21 -10 -26 10 -42 12 -10 26 -15 31 -12 12 7 11 34
-1 34 -6 0 -14 10 -19 22 l-8 22 -13 -24z"/>
<path d="M2355 2939 c-4 -6 0 -16 8 -22 8 -7 17 -19 20 -27 4 -12 6 -11 6 3 1
10 5 16 10 13 5 -3 11 3 14 13 3 14 -2 21 -17 25 -29 8 -34 7 -41 -5z"/>
<path d="M2800 2911 c0 -21 23 -45 33 -34 13 12 7 41 -9 47 -23 9 -24 8 -24
-13z"/>
<path d="M2698 2876 c-24 -49 -24 -50 9 -60 19 -6 26 -1 40 29 13 26 14 41 7
52 -19 30 -33 25 -56 -21z"/>
<path d="M2854 2885 c-8 -21 2 -45 20 -45 19 0 29 29 15 46 -15 18 -28 18 -35
-1z"/>
<path d="M2741 2805 c-23 -41 -41 -78 -41 -82 0 -5 8 -20 17 -33 l17 -24 42
89 c41 89 45 109 19 119 -9 3 -28 -20 -54 -69z"/>
<path d="M2397 2854 c-6 -7 -1 -125 9 -174 1 -8 3 -18 3 -22 1 -5 8 -8 16 -8
20 0 21 127 1 155 -7 11 -15 28 -17 38 -2 11 -7 15 -12 11z"/>
<path d="M2905 2839 c-12 -37 36 -54 55 -19 8 15 6 21 -9 30 -29 15 -39 13
-46 -11z"/>
<path d="M2450 2836 c0 -8 4 -17 9 -20 5 -4 7 3 4 14 -6 23 -13 26 -13 6z"/>
<path d="M2791 2750 c-45 -99 -48 -112 -27 -129 19 -16 113 184 95 205 -6 8
-15 14 -19 14 -4 0 -26 -41 -49 -90z"/>
<path d="M2663 2794 c-3 -8 1 -22 9 -30 13 -13 16 -13 27 0 7 9 11 23 7 31 -7
20 -35 19 -43 -1z"/>
<path d="M2837 2698 c-52 -113 -53 -120 -33 -137 12 -10 23 7 65 95 28 59 51
112 51 119 0 10 -20 25 -34 25 -1 0 -23 -46 -49 -102z"/>
<path d="M2603 2727 c-39 -41 -39 -43 -25 -71 l15 -30 38 45 c42 48 45 56 25
81 -11 16 -16 13 -53 -25z"/>
<path d="M2646 2663 c-21 -25 -54 -52 -72 -61 -36 -17 -40 -26 -24 -66 8 -23
12 -25 37 -15 15 5 34 18 41 27 7 9 16 17 20 17 8 -1 72 74 72 83 0 4 -8 19
-18 33 l-17 27 -39 -45z"/>
<path d="M2467 2643 c-4 -3 -7 -19 -7 -35 0 -21 5 -28 19 -28 26 0 34 15 27
46 -6 23 -25 32 -39 17z"/>
<path d="M2058 2605 l4 -35 69 0 c38 0 69 4 69 10 0 5 -5 21 -12 35 -10 23
-17 25 -73 25 l-61 0 4 -35z"/>
<path d="M2206 2618 c11 -38 25 -48 66 -48 32 0 39 3 34 16 -3 8 -1 24 4 35
10 18 7 19 -50 19 -59 0 -61 -1 -54 -22z"/>
<path d="M2400 2611 c0 -20 -6 -31 -17 -34 -10 -3 0 -5 22 -4 37 2 40 4 43 35
3 29 1 32 -22 32 -22 0 -26 -5 -26 -29z"/>
<path d="M1996 2614 c-7 -19 10 -44 29 -44 16 0 26 25 19 45 -8 20 -40 19 -48
-1z"/>
<path d="M2695 2585 c-20 -25 -55 -55 -78 -66 -23 -12 -43 -22 -45 -24 -1 -1
4 -16 11 -33 l13 -31 43 21 c43 21 121 111 121 140 0 9 -6 21 -14 27 -11 9
-21 2 -51 -34z"/>
<path d="M1912 2590 c-46 -33 -47 -35 -29 -66 12 -21 12 -21 65 7 28 15 48 31
42 34 -5 3 -10 17 -10 31 0 32 -18 30 -68 -6z"/>
<path d="M2473 2563 c-6 -5 -39 -8 -72 -8 -66 1 -76 -10 -47 -50 11 -16 17
-17 29 -7 10 9 17 10 22 2 10 -16 43 -12 54 8 6 9 11 11 11 5 0 -13 51 -18 62
-7 3 3 3 17 -1 32 -7 27 -35 39 -58 25z"/>
<path d="M2732 2514 c-31 -40 -57 -62 -93 -77 -45 -20 -49 -25 -46 -49 4 -32
-1 -35 -17 -12 -9 12 -17 13 -39 5 -16 -6 -50 -11 -77 -11 -43 0 -48 -2 -43
-20 5 -17 14 -20 70 -20 42 0 76 6 101 19 38 18 82 32 94 28 19 -6 118 119
118 148 0 6 -6 19 -12 28 -12 15 -18 11 -56 -39z"/>
<path d="M2076 2551 l-48 -6 26 -29 c20 -20 33 -26 49 -22 12 3 48 6 80 6 l58
0 -16 30 c-17 33 -34 35 -149 21z"/>
<path d="M2240 2545 c0 -23 37 -55 65 -55 17 0 25 5 25 18 0 28 -13 39 -52 46
-31 6 -38 4 -38 -9z"/>
<path d="M1954 2519 c-23 -11 -50 -29 -60 -40 -16 -17 -16 -22 -4 -30 16 -10
19 -10 100 20 54 20 61 31 38 58 -14 18 -26 16 -74 -8z"/>
<path d="M1781 2454 c-27 -44 -29 -51 -15 -64 13 -13 18 -11 44 20 33 40 35
48 15 74 -13 17 -16 15 -44 -30z"/>
<path d="M2515 2480 c-3 -6 1 -7 9 -4 18 7 21 14 7 14 -6 0 -13 -4 -16 -10z"/>
<path d="M2112 2450 c20 -28 26 -30 90 -30 70 0 77 5 58 41 -9 16 -22 19 -91
19 l-80 0 23 -30z"/>
<path d="M2270 2475 c0 -2 5 -16 12 -30 9 -20 18 -25 49 -25 32 0 37 3 32 18
-11 32 -25 42 -59 42 -19 0 -34 -2 -34 -5z"/>
<path d="M2433 2473 c15 -2 37 -2 50 0 12 2 0 4 -28 4 -27 0 -38 -2 -22 -4z"/>
<path d="M1976 2447 l-49 -23 28 -22 c33 -26 35 -26 82 -7 19 8 44 15 54 15
23 0 23 4 3 35 -21 32 -53 32 -118 2z"/>
<path d="M1816 2390 c-74 -100 -57 -125 24 -37 53 56 58 68 36 87 -12 9 -23 1
-60 -50z"/>
<path d="M1879 2372 c-69 -74 -73 -80 -59 -97 20 -24 31 -19 93 38 53 50 56
55 40 69 -33 28 -40 27 -74 -10z"/>
<path d="M2178 2403 c-16 -4 -16 -6 -2 -29 9 -13 12 -24 6 -24 -5 0 -17 12
-27 26 -15 23 -21 26 -57 20 -22 -4 -52 -13 -65 -20 l-25 -13 26 -20 c37 -30
32 -38 -8 -14 -18 12 -38 21 -43 21 -5 0 -33 -23 -61 -52 -49 -49 -51 -53 -35
-70 21 -24 27 -23 65 11 18 15 58 41 88 57 48 24 69 29 163 32 59 2 107 6 107
8 0 3 -7 20 -14 39 -14 33 -18 35 -58 34 -24 -1 -51 -3 -60 -6z"/>
<path d="M2310 2387 c0 -30 31 -57 65 -57 l35 0 -17 35 c-14 30 -22 35 -50 35
-20 0 -33 -5 -33 -13z"/>
<path d="M1662 2225 c-47 -107 -54 -135 -34 -135 4 0 32 50 62 110 49 100 53
111 39 126 -15 14 -21 5 -67 -101z"/>
<path d="M1704 2194 c-41 -87 -49 -124 -27 -124 8 0 103 197 103 213 0 4 -7 7
-16 7 -10 0 -32 -35 -60 -96z"/>
<path d="M1764 2203 c-58 -128 -57 -126 -39 -119 9 3 19 6 21 6 2 0 25 32 50
71 36 56 43 74 33 85 -21 26 -39 14 -65 -43z"/>
<path d="M1816 2161 c-39 -64 -41 -72 -25 -88 8 -8 24 6 61 53 40 53 47 68 38
80 -21 25 -36 16 -74 -45z"/>
<path d="M1510 2169 c0 -6 13 -24 29 -40 50 -49 74 -27 26 25 -24 26 -55 35
-55 15z"/>
<path d="M1640 2046 c0 -21 21 -31 30 -15 5 7 6 17 4 21 -9 14 -34 9 -34 -6z"/>
<path d="M1765 2050 c3 -5 8 -10 11 -10 2 0 4 5 4 10 0 6 -5 10 -11 10 -5 0
-7 -4 -4 -10z"/>
<path d="M1712 2030 c0 -14 2 -19 5 -12 2 6 2 18 0 25 -3 6 -5 1 -5 -13z"/>
<path d="M1733 2010 c-7 -24 -11 -25 -36 -2 -16 13 -19 14 -15 2 2 -8 17 -19
31 -24 21 -8 31 -6 47 9 26 23 25 35 -1 35 -12 0 -23 -8 -26 -20z"/>
<path d="M2242 1575 c-6 -38 -14 -85 -18 -102 -6 -33 -6 -33 31 -33 l38 0 -7
48 c-4 26 -12 72 -19 102 l-13 55 -12 -70z"/>
<path d="M2060 1145 c0 -24 3 -26 33 -23 24 2 32 8 32 23 0 15 -8 21 -32 23
-30 3 -33 1 -33 -23z"/>
<path d="M2200 1145 c0 -23 4 -26 28 -23 19 2 27 9 27 23 0 14 -8 21 -27 23
-24 3 -28 0 -28 -23z"/>
<path d="M2450 1116 c0 -53 1 -56 25 -56 57 0 59 102 2 108 -27 3 -27 2 -27
-52z"/>
<path d="M2600 935 c0 -23 4 -26 28 -23 19 2 27 9 27 23 0 14 -8 21 -27 23
-24 3 -28 0 -28 -23z"/>
</g>
</svg>
