<?xml version="1.0" standalone="no"?>
<!DOCTYPE svg PUBLIC "-//W3C//DTD SVG 20010904//EN"
 "http://www.w3.org/TR/2001/REC-SVG-20010904/DTD/svg10.dtd">
<svg version="1.0" xmlns="http://www.w3.org/2000/svg"
 width="1000.000000pt" height="1000.000000pt" viewBox="0 0 1000.000000 1000.000000"
 preserveAspectRatio="xMidYMid meet">

<g transform="translate(0.000000,1000.000000) scale(0.100000,-0.100000)"
fill="#000000" stroke="none">
<path d="M0 5000 l0 -5000 5000 0 5000 0 0 5000 0 5000 -5000 0 -5000 0 0
-5000z m4850 2995 c0 -17 5 -18 28 -6 9 4 33 11 54 15 l36 7 -7 -33 c-5 -19
-13 -44 -20 -56 -6 -12 -14 -50 -18 -85 -7 -74 8 -97 62 -97 52 0 217 -41 280
-70 11 -5 56 -25 99 -44 86 -37 98 -49 85 -83 -11 -30 -37 -29 -124 3 -166 62
-243 86 -322 101 -78 14 -86 14 -101 -1 -24 -24 -3 -39 65 -44 81 -6 453 -131
453 -152 0 -4 -3 -22 -6 -40 -6 -29 -10 -31 -38 -27 -17 2 -69 19 -116 36 -77
29 -111 41 -205 71 -56 17 -181 24 -190 10 -12 -20 24 -40 72 -40 24 0 51 -4
61 -9 15 -9 93 -31 172 -49 14 -3 70 -24 125 -46 82 -34 101 -45 103 -64 4
-29 -14 -52 -41 -52 -11 0 -61 14 -111 30 -50 17 -107 35 -126 41 -19 6 -53
19 -75 29 -46 20 -183 35 -204 21 -33 -22 31 -61 74 -45 8 3 45 -4 82 -15 37
-12 86 -26 108 -33 92 -26 221 -71 243 -86 19 -13 23 -21 18 -46 -4 -16 -8
-31 -11 -34 -6 -6 -97 17 -195 49 -146 48 -237 69 -300 69 -53 0 -60 -2 -60
-19 0 -16 9 -21 48 -26 75 -9 258 -57 387 -102 85 -29 110 -51 101 -88 -6 -25
-10 -27 -54 -23 -26 3 -78 16 -117 30 -38 14 -90 31 -115 38 -25 7 -56 16 -70
20 -45 15 -187 33 -204 27 -48 -19 11 -63 71 -54 19 3 39 0 50 -8 10 -8 30
-15 44 -15 14 0 39 -4 55 -9 16 -5 49 -14 74 -21 117 -33 225 -74 235 -90 4
-6 4 -22 1 -36 -5 -20 -12 -24 -44 -24 -20 0 -75 12 -122 26 -213 65 -261 75
-338 72 -49 -2 -77 -7 -80 -15 -4 -15 1 -17 93 -32 173 -30 306 -66 418 -114
36 -16 47 -26 47 -43 0 -49 -41 -50 -200 -5 -165 47 -187 53 -230 54 -25 1
-50 6 -57 10 -37 24 -173 12 -147 -12 16 -16 116 -41 140 -35 13 4 32 -1 46
-10 12 -9 34 -16 49 -16 14 0 39 -4 55 -9 16 -5 54 -14 84 -20 30 -7 66 -16
80 -21 14 -4 51 -16 83 -25 55 -16 86 -44 59 -53 -7 -2 -12 -10 -12 -17 0 -27
-82 -25 -182 4 -21 6 -55 16 -75 22 -21 6 -75 17 -119 24 -45 8 -94 19 -109
25 -14 5 -51 10 -81 10 -49 0 -54 -2 -54 -22 0 -12 5 -36 12 -54 11 -31 9 -44
-14 -75 -9 -13 -7 -26 10 -63 13 -27 22 -65 22 -94 0 -38 5 -53 23 -69 27 -25
81 -53 102 -53 9 0 34 -9 57 -21 81 -42 179 -61 193 -39 11 18 -5 32 -21 19
-16 -13 -11 -15 -144 50 -47 22 -107 58 -135 79 l-50 38 -3 68 c-2 38 0 76 4
85 5 9 8 23 9 31 0 10 11 15 35 14 19 0 38 4 41 9 9 13 38 1 46 -19 3 -9 0
-20 -7 -24 -10 -6 -10 -21 0 -76 16 -88 30 -114 77 -147 51 -35 148 -77 179
-77 13 0 36 -7 49 -16 14 -9 32 -13 41 -10 11 4 14 1 10 -12 -7 -22 4 -39 28
-43 11 -2 21 -10 24 -17 3 -11 -19 -13 -114 -10 l-119 3 -7 -45 c-3 -25 -11
-63 -16 -85 -25 -104 -25 -104 -1 -153 13 -26 32 -60 43 -75 21 -32 14 -47
-14 -29 -27 17 -30 15 -30 -12 0 -29 46 -67 103 -86 41 -13 46 -24 18 -40 -31
-16 -77 -12 -117 10 -20 12 -38 19 -40 17 -3 -2 2 -17 11 -33 10 -20 15 -60
15 -133 l0 -104 40 7 c79 12 179 87 260 194 28 37 87 141 131 232 44 91 115
234 157 319 42 84 78 157 80 161 2 5 -12 24 -31 43 -43 42 -53 72 -36 104 11
20 11 26 -1 34 -34 22 -65 22 -104 0 -45 -24 -49 -21 -67 43 -8 28 -7 65 2
135 7 53 12 121 11 151 -1 37 2 48 7 35 l8 -20 5 20 c3 11 11 43 18 70 6 28
16 67 21 88 6 23 7 75 3 127 -6 80 -5 89 14 108 13 13 17 24 11 27 -10 7 -4
61 12 105 4 14 10 54 12 90 4 58 35 158 37 120 1 -10 4 -9 10 5 14 32 11 42
-10 48 -14 4 -20 14 -20 35 0 42 -27 90 -66 115 -19 12 -34 26 -34 31 0 5 -15
23 -33 40 -19 17 -38 38 -43 46 -12 20 -87 60 -113 60 -11 0 -21 5 -21 10 0
24 129 2 190 -32 19 -11 67 -34 106 -53 39 -18 82 -47 97 -65 67 -79 158 -274
141 -301 -3 -5 6 -19 20 -31 13 -13 27 -40 31 -60 5 -35 -2 -48 -18 -31 -4 3
-18 8 -32 9 -35 4 -33 -29 5 -64 23 -21 28 -33 24 -54 -6 -24 -8 -25 -37 -17
-22 6 -33 5 -39 -4 -12 -19 -10 -25 17 -43 20 -13 25 -24 25 -60 0 -48 -1 -49
-32 -33 -16 9 -23 8 -29 -2 -14 -22 -11 -29 16 -41 22 -10 26 -17 23 -47 -3
-37 -19 -44 -60 -26 -29 12 -22 -21 13 -65 38 -47 29 -67 -28 -72 -46 -4 -53
-22 -15 -42 37 -19 51 -62 25 -82 -10 -7 -25 -11 -33 -8 -55 22 -67 -14 -15
-44 38 -23 44 -42 19 -71 -13 -14 -25 -18 -55 -14 -56 8 -52 -20 6 -46 45 -20
58 -44 30 -55 -26 -9 -16 -23 13 -18 21 3 36 -4 61 -27 18 -17 36 -31 40 -31
4 0 27 21 51 46 68 69 160 126 295 185 42 18 182 61 230 71 27 5 68 14 90 19
157 36 525 72 525 51 0 -11 -33 -22 -67 -22 -29 0 -31 -6 -24 -65 l6 -50 36 3
c21 2 40 -1 43 -7 8 -12 -37 -25 -134 -41 -122 -19 -183 -30 -187 -34 -9 -9
31 -107 46 -115 9 -4 52 -4 96 0 206 20 242 22 249 11 8 -14 -55 -32 -113 -32
-89 0 -221 -23 -221 -38 0 -25 43 -141 54 -145 6 -3 69 -1 141 3 71 5 133 6
137 3 22 -13 -4 -20 -124 -31 -73 -7 -134 -15 -137 -18 -9 -8 41 -142 58 -158
15 -13 29 -14 92 -6 115 15 141 13 137 -7 -3 -15 -20 -19 -113 -25 -123 -7
-265 -23 -340 -38 -27 -6 -68 -13 -90 -16 -78 -13 -81 -19 -35 -74 54 -64 33
-78 -25 -16 -54 59 -80 59 -182 5 -125 -66 -219 -158 -297 -289 -27 -46 -276
-547 -276 -556 0 -22 -120 -175 -189 -241 -98 -95 -138 -113 -243 -113 -44 0
-80 -6 -100 -16 -20 -10 -45 -14 -68 -11 -33 4 -39 1 -55 -26 -18 -31 -18 -31
-32 -10 -12 17 -21 20 -49 16 -25 -4 -38 -1 -47 10 -17 22 -158 37 -342 37
-140 0 -236 -11 -321 -38 -103 -32 -227 -116 -324 -219 -77 -82 -219 -270
-227 -302 -3 -13 5 -23 29 -34 57 -27 104 -90 91 -124 -18 -47 -71 -56 -102
-17 -39 49 -19 74 26 32 18 -17 26 -19 35 -10 31 31 -71 119 -109 96 -10 -6
-36 -41 -58 -77 -40 -67 -71 -90 -59 -43 3 13 1 27 -6 31 -13 8 -70 -13 -70
-26 0 -17 -19 -9 -25 11 -5 15 -15 20 -41 20 -29 0 -36 5 -48 33 -7 19 -25 43
-40 54 -21 17 -26 29 -26 66 0 25 -4 48 -8 51 -12 7 -29 -7 -33 -28 -2 -11
-10 -21 -17 -24 -9 -3 -11 6 -6 35 6 39 6 39 -52 74 -32 18 -69 49 -81 68 -25
37 -31 99 -11 119 34 34 152 -16 179 -77 8 -17 18 -30 23 -28 6 2 23 35 38 73
15 38 32 78 37 89 5 11 22 49 37 85 51 115 170 345 212 407 57 84 186 218 251
262 179 118 329 136 865 105 l109 -6 -7 78 c-29 304 -33 322 -70 359 -17 17
-43 39 -58 48 -34 21 -39 76 -10 104 17 17 27 62 48 223 5 45 5 45 -35 63 -23
9 -48 17 -56 17 -8 0 -15 5 -15 10 0 6 -8 10 -17 11 -10 0 -43 29 -73 64 -56
64 -70 75 -70 53 1 -17 46 -68 60 -68 5 0 10 -4 10 -10 0 -5 7 -10 15 -10 8 0
15 -4 15 -10 0 -14 -2 -13 -51 13 -45 24 -129 98 -129 115 0 5 -7 15 -15 22
-22 18 -20 -8 2 -32 34 -37 4 -27 -41 15 l-47 43 3 89 c2 73 6 90 19 93 10 2
19 -6 23 -20 6 -23 6 -23 21 6 8 15 15 39 15 52 0 12 5 26 10 29 17 10 11 25
-10 25 -16 0 -20 7 -20 30 0 17 -4 30 -10 30 -5 0 -10 4 -10 10 0 5 18 13 40
16 24 4 45 14 50 25 14 25 13 27 -17 31 -24 3 -28 8 -31 39 -3 33 0 37 25 42
15 4 34 11 42 16 19 12 6 41 -18 41 -17 0 -30 24 -31 57 0 6 19 18 43 26 30
10 42 19 42 33 0 12 -7 19 -20 19 -17 0 -20 7 -20 40 0 40 0 40 38 38 36 -2
37 -2 37 33 0 31 -3 36 -20 31 -22 -6 -36 7 -45 45 -6 24 -4 28 22 33 73 16
94 43 43 55 -13 3 -28 13 -34 22 -13 21 14 54 61 73 41 17 43 35 4 35 -60 0
-47 63 20 94 45 22 51 41 13 41 -12 0 -31 9 -43 19 -25 23 -16 38 32 57 54 21
87 58 87 98 0 28 7 42 29 60 23 19 28 29 20 42 -5 11 -5 20 0 23 5 4 12 0 14
-6 3 -7 6 -3 6 8 1 27 58 55 71 34 6 -10 14 -9 36 7 45 32 94 41 94 18z m375
-17 c101 -31 104 -41 12 -36 -53 4 -80 1 -85 -7 -4 -6 -14 -14 -24 -18 -9 -3
-22 -18 -30 -34 -17 -36 -87 -61 -124 -44 -34 15 -30 33 16 70 22 17 40 36 40
41 0 6 8 19 17 30 23 27 87 26 178 -2z m-625 -55 c0 -14 -45 -103 -52 -103
-18 0 -7 65 14 87 21 23 38 30 38 16z m780 -1088 c0 -8 -4 -15 -10 -15 -5 0
-10 7 -10 15 0 8 5 15 10 15 6 0 10 -7 10 -15z m-262 -895 c15 0 26 -9 34 -27
6 -16 19 -47 29 -70 22 -49 22 -53 9 -53 -5 0 -10 8 -10 18 0 31 -80 71 -99
48 -7 -9 3 -31 34 -79 53 -78 61 -131 23 -140 -13 -2 -30 -8 -39 -11 -11 -5
-27 3 -48 24 -26 27 -31 39 -31 80 0 49 15 99 35 112 5 4 0 17 -15 32 -19 21
-20 26 -7 26 9 0 19 5 22 10 11 19 -22 10 -59 -15 l-36 -24 0 23 c0 32 52 58
100 51 19 -2 45 -5 58 -5z m-191 -2442 c6 -13 27 -72 46 -133 57 -175 75 -220
87 -220 7 0 38 77 69 172 32 94 63 179 71 188 9 11 25 15 49 13 33 -3 36 -6
43 -44 3 -23 6 -225 5 -450 l-2 -409 -43 -3 c-63 -5 -65 6 -58 300 4 147 3
249 -3 252 -5 3 -11 -2 -14 -12 -64 -193 -105 -297 -117 -297 -11 0 -74 159
-117 298 -3 9 -10 17 -16 17 -7 0 -8 -83 -4 -257 3 -146 1 -266 -4 -280 -8
-21 -14 -24 -51 -21 l-43 3 -3 425 c-2 300 1 433 9 453 10 23 17 27 49 27 28
0 39 -5 47 -22z m-338 -35 c9 -34 19 -83 53 -258 5 -27 14 -70 19 -95 5 -25
13 -70 18 -100 13 -74 29 -163 43 -235 7 -33 12 -82 12 -110 l1 -50 -36 -3
c-21 -2 -40 2 -46 10 -8 11 -21 63 -39 156 -4 21 -9 22 -82 22 -101 0 -121 -6
-128 -39 -33 -153 -38 -163 -89 -159 -50 5 -51 -5 51 503 83 415 75 395 160
395 53 0 53 0 63 -37z m1139 -9 c4 -51 -9 -62 -73 -66 l-50 -3 -3 -374 c-1
-256 -6 -378 -13 -388 -16 -18 -74 -16 -94 4 -15 15 -16 37 -10 212 10 287 11
528 3 537 -4 3 -29 7 -55 8 l-48 1 -3 44 c-5 74 -12 72 175 69 l168 -3 3 -41z
m-35 -1085 c27 -29 28 -49 3 -49 -7 0 -22 11 -34 25 -25 29 -72 33 -96 9 -33
-32 -12 -60 67 -89 84 -32 110 -90 61 -139 -46 -45 -156 -33 -185 20 -10 20
-10 27 0 37 10 9 16 6 32 -15 34 -46 107 -49 130 -5 10 18 8 24 -15 44 -15 12
-39 26 -54 29 -34 9 -79 40 -92 64 -13 25 5 74 33 88 61 30 111 23 150 -19z
m-1419 0 c35 -41 34 -83 -3 -120 -26 -26 -36 -29 -90 -29 l-61 0 0 -60 c0 -53
-2 -60 -20 -60 -19 0 -20 7 -20 150 l0 150 84 0 c82 0 85 -1 110 -31z m247 18
c44 -34 49 -83 13 -126 -28 -33 -27 -50 7 -105 24 -39 24 -56 2 -56 -12 0 -29
21 -48 58 -28 53 -33 57 -65 57 l-35 0 -3 -57 c-3 -50 -6 -58 -22 -58 -19 0
-20 8 -20 150 l0 150 78 0 c45 -1 84 -6 93 -13z m279 -2 c0 -11 -17 -15 -72
-17 l-73 -3 0 -40 0 -40 60 -5 c46 -4 61 -9 63 -22 3 -14 -7 -17 -60 -20 l-63
-3 0 -45 0 -45 70 -5 c56 -4 70 -8 73 -22 3 -16 -6 -18 -92 -18 l-96 0 0 150
0 150 95 0 c77 0 95 -3 95 -15z m205 3 c40 -18 69 -74 69 -132 1 -100 -55
-156 -155 -156 l-59 0 0 150 0 150 60 0 c32 0 71 -5 85 -12z m175 -138 c0
-143 -1 -150 -20 -150 -19 0 -20 7 -20 150 0 143 1 150 20 150 19 0 20 -7 20
-150z m110 90 c0 -39 4 -60 12 -60 6 0 36 27 65 60 31 34 63 60 74 60 10 0 19
-3 19 -6 0 -3 -23 -32 -51 -64 -33 -39 -48 -63 -43 -72 4 -7 29 -41 56 -76 52
-69 57 -82 30 -82 -11 0 -39 27 -67 65 -27 36 -53 65 -57 65 -21 0 -38 -36
-38 -81 0 -42 -3 -49 -20 -49 -19 0 -20 7 -20 150 0 143 1 150 20 150 18 0 20
-7 20 -60z m525 -90 c0 -138 -1 -145 -20 -145 -19 0 -20 8 -23 134 -3 148 0
164 25 159 16 -3 18 -18 18 -148z m-1340 -275 c29 -11 55 -45 55 -71 0 -14
-36 0 -56 21 -22 24 -56 31 -89 19 -25 -10 -45 -59 -45 -111 0 -87 54 -139
119 -117 21 7 27 17 29 46 3 35 2 37 -30 40 -52 5 -33 23 25 23 l52 0 3 -47
c3 -41 -1 -51 -24 -73 -22 -21 -37 -25 -83 -25 -62 1 -79 10 -110 60 -25 42
-29 136 -7 178 34 65 93 86 161 57z m313 -7 c-3 -8 -31 -15 -74 -18 l-69 -5
-3 -42 -3 -43 50 0 c59 0 81 -7 81 -26 0 -11 -16 -14 -65 -14 l-65 0 0 -50 0
-50 59 0 c68 0 91 -6 91 -26 0 -11 -20 -14 -95 -14 l-95 0 0 150 0 150 96 0
c72 0 95 -3 92 -12z m168 -93 c38 -57 72 -105 77 -105 4 0 7 47 7 105 0 98 1
105 20 105 19 0 20 -7 20 -150 0 -143 -1 -150 -20 -150 -14 0 -40 31 -91 106
-39 58 -73 103 -77 99 -3 -3 -6 -50 -7 -103 0 -90 -1 -97 -20 -97 -19 0 -20 8
-23 134 -1 74 0 141 2 148 3 7 14 13 24 13 13 0 41 -33 88 -105z m365 92 c44
-34 49 -83 13 -126 -28 -33 -27 -50 7 -105 24 -39 24 -56 2 -56 -12 0 -29 21
-48 58 -28 53 -33 57 -65 57 l-35 0 -3 -57 c-3 -50 -6 -58 -22 -58 -19 0 -20
8 -20 150 l0 150 78 0 c45 -1 84 -6 93 -13z m279 -2 c0 -11 -17 -15 -72 -17
l-73 -3 0 -40 0 -40 60 -5 c46 -4 61 -9 63 -22 3 -14 -7 -17 -60 -20 l-63 -3
0 -45 0 -45 70 -5 c56 -4 70 -8 73 -22 3 -16 -6 -18 -92 -18 l-96 0 0 150 0
150 95 0 c77 0 95 -3 95 -15z m-387 -436 c27 -29 28 -49 3 -49 -7 0 -22 11
-34 25 -25 29 -72 33 -96 9 -33 -32 -12 -60 67 -89 84 -32 110 -90 61 -139
-46 -45 -156 -33 -185 20 -10 20 -10 27 0 37 10 9 16 6 32 -15 34 -46 107 -49
130 -5 10 18 8 24 -15 44 -15 12 -39 26 -54 29 -34 9 -79 40 -92 64 -13 25 5
74 33 88 61 30 111 23 150 -19z m385 8 c22 -21 30 -61 13 -71 -5 -3 -21 10
-35 29 -33 43 -75 47 -111 10 -22 -21 -25 -33 -25 -95 0 -62 3 -74 25 -95 38
-39 97 -29 115 21 5 13 16 24 25 24 24 0 18 -45 -11 -74 -22 -21 -36 -26 -79
-26 -48 0 -56 3 -84 35 -29 33 -31 41 -31 111 0 102 17 132 90 158 27 9 84 -5
108 -27z m-1117 -84 c23 -60 44 -110 46 -112 9 -12 33 32 69 122 35 91 40 98
63 95 l26 -3 0 -145 c0 -138 -1 -145 -20 -145 -18 0 -20 7 -20 85 0 49 -4 86
-10 87 -5 1 -18 -19 -28 -44 -41 -104 -58 -134 -75 -131 -10 2 -31 40 -57 105
-22 57 -44 103 -48 103 -5 0 -7 -46 -5 -102 3 -97 2 -103 -17 -103 -19 0 -20
8 -23 134 -1 74 0 141 2 148 3 7 16 13 30 13 21 0 29 -12 67 -107z m317 -13
c2 -103 4 -117 23 -132 26 -22 58 -23 85 -4 16 12 20 30 24 133 5 110 6 118
25 118 18 0 20 -8 23 -85 4 -108 -3 -142 -34 -180 -22 -26 -32 -30 -75 -30
-95 0 -119 39 -119 196 0 94 4 107 30 102 12 -3 15 -24 18 -118z m537 -30 c0
-138 -1 -145 -20 -145 -19 0 -20 8 -23 134 -3 148 0 164 25 159 16 -3 18 -18
18 -148z"/>
<path d="M4647 6933 c-12 -11 14 -33 39 -33 31 0 31 14 -1 28 -30 14 -30 14
-38 5z"/>
<path d="M6678 6706 c-21 -15 -24 -76 -6 -94 21 -21 65 -14 87 14 42 53 -27
122 -81 80z"/>
<path d="M6555 6703 c-47 -7 -51 -25 -22 -95 10 -24 17 -28 55 -28 46 0 64 19
42 45 -6 7 -10 29 -8 47 3 36 -6 40 -67 31z"/>
<path d="M6345 6668 c-83 -20 -112 -28 -180 -48 -38 -12 -85 -28 -102 -36 -18
-7 -50 -22 -70 -31 -52 -23 -168 -102 -226 -153 -52 -46 -107 -120 -107 -143
0 -18 77 -77 100 -77 9 0 27 12 41 26 83 91 197 177 298 225 117 56 141 73
141 100 0 46 96 66 143 29 23 -18 30 -19 71 -8 40 11 46 16 46 39 0 14 -7 40
-16 57 -14 29 -20 32 -57 31 -23 -1 -60 -6 -82 -11z"/>
<path d="M6296 6539 c-37 -29 -32 -39 13 -25 51 15 57 22 33 35 -16 8 -25 6
-46 -10z"/>
<path d="M6423 6508 c-6 -7 -14 -24 -18 -38 -4 -14 -21 -37 -38 -53 -30 -25
-31 -28 -14 -41 13 -10 27 -11 50 -5 18 4 60 14 95 21 68 13 71 17 48 83 -14
39 -16 40 -63 43 -32 2 -54 -2 -60 -10z"/>
<path d="M6317 6487 c-47 -13 -47 -41 0 -45 23 -2 35 3 47 19 8 12 13 26 10
31 -6 9 -6 9 -57 -5z"/>
<path d="M6173 6432 c-57 -23 -73 -40 -51 -53 9 -5 19 -23 23 -39 4 -16 10
-32 14 -34 11 -7 145 41 149 54 5 13 -66 90 -83 89 -5 0 -29 -8 -52 -17z"/>
<path d="M4380 6370 c0 -5 5 -10 10 -10 6 0 10 5 10 10 0 6 -4 10 -10 10 -5 0
-10 -4 -10 -10z"/>
<path d="M6020 6348 c-25 -27 -25 -40 -2 -60 30 -27 56 -30 80 -8 27 26 28 44
2 70 -26 26 -54 25 -80 -2z"/>
<path d="M6495 6359 c-22 -5 -57 -12 -77 -15 -21 -4 -38 -10 -38 -13 0 -11 78
-129 90 -136 18 -11 151 7 157 21 7 18 -24 114 -44 137 -17 19 -28 19 -88 6z"/>
<path d="M6280 6308 c-14 -6 -34 -14 -45 -18 -11 -4 -36 -15 -55 -23 -19 -9
-48 -20 -63 -26 -47 -18 -45 -38 10 -93 l50 -50 59 20 c33 11 84 27 114 36 88
26 87 25 40 100 -44 69 -58 76 -110 54z"/>
<path d="M5877 6231 l-82 -82 30 -24 c17 -14 35 -25 40 -25 6 0 39 27 75 59
l64 58 -14 42 c-7 23 -17 44 -22 47 -5 3 -46 -31 -91 -75z"/>
<path d="M5613 6198 c-13 -19 -63 -115 -63 -122 0 -4 5 -4 11 0 19 11 58 -18
70 -53 6 -18 14 -33 17 -33 12 0 91 141 86 153 -7 17 -79 67 -97 67 -8 0 -19
-6 -24 -12z"/>
<path d="M5966 6143 c-73 -65 -75 -72 -30 -110 43 -38 82 -42 108 -14 10 11
30 24 46 31 45 19 44 37 -6 91 -26 27 -51 49 -55 49 -5 0 -33 -21 -63 -47z"/>
<path d="M6563 6167 c-35 -6 -63 -15 -63 -21 0 -6 9 -22 20 -36 21 -27 26 -50
10 -50 -5 0 -24 18 -41 40 -37 45 -50 48 -128 21 -31 -10 -75 -24 -99 -31 -24
-8 -45 -17 -48 -22 -3 -4 19 -35 48 -69 l53 -60 50 5 c28 3 70 9 95 15 25 5
88 17 140 26 52 9 97 19 99 21 8 8 -43 144 -58 157 -12 10 -31 11 -78 4z"/>
<path d="M5707 6020 c-31 -49 -57 -98 -57 -109 0 -20 45 -55 59 -46 12 7 121
190 121 203 0 13 -39 42 -56 42 -6 0 -36 -40 -67 -90z"/>
<path d="M5832 5998 c-46 -69 -82 -135 -82 -152 0 -19 47 -56 71 -56 11 0 19
4 19 8 0 5 27 40 60 80 33 39 60 78 60 86 0 13 -78 76 -94 76 -3 0 -18 -19
-34 -42z"/>
<path d="M6099 6017 c-98 -59 -233 -208 -227 -250 2 -10 22 -30 45 -44 l42
-25 53 50 c66 61 128 103 201 136 31 15 59 31 62 36 3 6 -15 35 -41 65 -54 62
-76 67 -135 32z"/>
<path d="M5478 5933 l-22 -46 30 -24 c42 -34 65 -39 81 -17 20 28 15 48 -17
66 -21 12 -30 25 -30 43 0 39 -18 30 -42 -22z"/>
<path d="M4712 5888 c-22 -22 -14 -46 18 -53 23 -5 30 -12 30 -30 0 -57 53
-26 64 38 7 35 5 37 -19 37 -14 0 -25 5 -25 10 0 14 -54 12 -68 -2z"/>
<path d="M5600 5834 c-12 -30 0 -58 32 -75 18 -10 24 -8 35 7 22 30 16 69 -12
82 -37 17 -44 15 -55 -14z"/>
<path d="M5433 5828 c-25 -34 -74 -148 -71 -164 2 -11 13 -20 28 -22 14 -2 29
-8 35 -13 5 -5 14 -9 21 -9 11 0 84 136 84 158 0 12 -61 62 -77 62 -6 0 -15
-6 -20 -12z"/>
<path d="M5705 5766 c-18 -42 -13 -57 23 -78 31 -18 43 -14 61 19 18 35 13 52
-21 73 -44 26 -47 26 -63 -14z"/>
<path d="M5559 5742 c-8 -9 -24 -35 -36 -57 -11 -22 -30 -57 -42 -77 -12 -21
-30 -55 -42 -75 -11 -21 -25 -42 -30 -47 -17 -19 -9 -58 21 -102 17 -24 34
-44 38 -44 4 0 13 15 21 33 8 17 35 77 61 132 77 166 80 172 80 193 0 11 -13
30 -29 41 -27 19 -29 19 -42 3z"/>
<path d="M4792 5708 c-14 -14 -16 -114 -2 -123 6 -3 10 -50 10 -106 0 -60 4
-99 10 -99 6 0 8 -11 4 -25 -9 -35 10 -55 43 -46 l26 7 0 125 c-1 122 -2 126
-32 174 -17 27 -31 56 -31 64 0 28 -15 42 -28 29z"/>
<path d="M5816 5695 c-23 -34 -20 -60 9 -79 36 -24 61 -20 89 16 28 36 24 48
-27 73 -41 21 -52 19 -71 -10z"/>
<path d="M4896 5702 c-9 -15 2 -54 18 -64 19 -13 27 -9 17 10 -5 9 -13 28 -18
41 -6 17 -12 21 -17 13z"/>
<path d="M5640 5628 c-12 -29 -45 -100 -72 -158 -87 -183 -83 -167 -53 -211
14 -21 29 -39 33 -39 4 0 23 33 41 73 19 39 54 115 79 167 24 52 51 113 60
134 15 39 15 39 -14 63 -16 12 -34 23 -40 23 -6 0 -21 -24 -34 -52z"/>
<path d="M5332 5608 c-21 -21 -14 -66 12 -83 30 -20 51 -11 66 26 11 25 10 32
-5 49 -20 22 -55 26 -73 8z"/>
<path d="M5760 5590 c0 -12 -33 -84 -116 -258 -35 -73 -64 -142 -64 -153 0
-22 36 -79 50 -79 8 0 28 39 94 185 20 44 53 112 73 150 56 112 57 113 26 141
-26 24 -63 33 -63 14z"/>
<path d="M5203 5451 c-81 -87 -82 -89 -63 -106 11 -10 20 -28 20 -40 0 -13 6
-28 14 -34 11 -9 29 5 90 72 42 47 76 93 76 103 0 14 -48 97 -54 93 0 0 -38
-40 -83 -88z"/>
<path d="M5319 5354 c-57 -74 -117 -126 -184 -159 -46 -22 -55 -31 -55 -53 0
-36 25 -105 39 -110 18 -6 111 31 136 54 13 12 29 24 34 25 17 6 151 171 151
186 0 15 -62 113 -71 113 -4 0 -26 -25 -50 -56z"/>
<path d="M4930 5281 c-5 -11 -10 -43 -10 -71 l0 -52 37 7 c74 14 77 19 51 103
-8 26 -15 32 -38 32 -19 0 -33 -7 -40 -19z"/>
<path d="M4100 5271 c0 -6 5 -13 11 -16 6 -4 9 -30 8 -59 l-3 -51 140 4 c76 1
141 5 143 7 6 6 -17 73 -35 102 -14 21 -21 22 -139 22 -72 0 -125 -4 -125 -9z"/>
<path d="M4400 5265 c0 -8 10 -35 21 -60 24 -50 39 -57 128 -59 54 -1 56 0 54
24 -1 14 5 41 12 61 8 20 11 39 8 43 -4 3 -55 6 -115 6 -90 0 -108 -3 -108
-15z"/>
<path d="M4813 5268 c-4 -7 -8 -20 -9 -28 -1 -8 -2 -25 -3 -38 0 -14 -10 -26
-26 -32 -65 -25 9 -41 88 -19 l38 10 -3 57 -3 57 -37 3 c-22 2 -39 -2 -45 -10z"/>
<path d="M4005 5246 c-29 -29 -27 -56 5 -90 25 -26 65 -15 78 21 9 29 -2 83
-18 83 -5 0 -15 3 -24 6 -9 3 -26 -5 -41 -20z"/>
<path d="M5421 5206 c-84 -109 -155 -164 -266 -206 -29 -11 -31 -22 -10 -40 8
-7 18 -30 22 -52 5 -37 8 -39 32 -35 47 10 97 35 147 75 64 51 174 194 174
227 0 25 -36 85 -51 85 -3 0 -25 -24 -48 -54z"/>
<path d="M3873 5212 c-39 -20 -88 -52 -109 -71 -31 -28 -35 -36 -25 -50 6 -9
19 -32 27 -51 9 -19 17 -36 19 -38 1 -1 29 15 61 36 32 21 75 45 94 52 50 19
54 25 36 51 -9 13 -16 40 -16 61 0 20 -4 39 -9 42 -4 3 -40 -11 -78 -32z"/>
<path d="M4950 5129 c-14 -6 -78 -13 -142 -14 -65 -2 -122 -6 -127 -10 -16 -9
21 -96 48 -113 22 -15 25 -15 42 7 18 22 21 23 37 7 19 -16 82 -22 96 -9 4 4
38 6 75 4 93 -4 105 8 81 81 -16 49 -19 53 -51 55 -19 1 -45 -3 -59 -8z"/>
<path d="M5496 5072 c-78 -118 -183 -203 -286 -232 -23 -6 -25 -11 -23 -63 2
-63 -9 -72 -32 -27 -17 33 -38 38 -62 14 -9 -8 -23 -12 -31 -9 -8 3 -19 0 -23
-7 -6 -10 -37 -12 -114 -11 -58 1 -105 1 -105 -1 0 -2 7 -20 15 -40 l15 -36
126 0 126 0 80 40 c45 22 86 40 93 40 6 0 42 9 78 21 54 17 75 30 108 67 64
71 139 191 139 221 0 28 -34 91 -49 91 -5 0 -30 -31 -55 -68z"/>
<path d="M4153 5108 c-51 -6 -93 -13 -93 -17 0 -3 19 -28 43 -53 l43 -47 160
6 c87 3 161 7 163 9 5 5 -17 65 -34 91 -14 21 -22 23 -103 22 -48 -1 -129 -6
-179 -11z"/>
<path d="M4482 5108 c-13 -17 20 -93 48 -108 23 -12 127 -13 134 -1 11 17 -28
102 -49 106 -67 13 -123 14 -133 3z"/>
<path d="M3925 5049 c-72 -35 -154 -94 -162 -116 -7 -19 32 -52 62 -53 11 0
47 13 80 29 33 16 80 35 105 41 65 17 90 28 90 40 0 20 -73 90 -94 90 -11 -1
-48 -14 -81 -31z"/>
<path d="M3614 4982 c-7 -4 -35 -45 -63 -91 l-52 -84 27 -28 c15 -16 30 -29
34 -29 10 0 120 150 120 164 0 7 -9 21 -20 31 -11 10 -20 24 -20 32 0 14 -9
16 -26 5z"/>
<path d="M5055 4970 c-3 -5 1 -10 10 -10 9 0 13 5 10 10 -3 6 -8 10 -10 10 -2
0 -7 -4 -10 -10z"/>
<path d="M4283 4963 c-57 -2 -103 -7 -103 -11 0 -4 22 -31 49 -59 l48 -53 116
0 c160 0 165 4 126 78 -19 35 -27 40 -67 46 -24 3 -50 5 -56 4 -6 -1 -57 -4
-113 -5z"/>
<path d="M4540 4948 c0 -7 11 -33 24 -58 l22 -45 64 -3 c74 -4 99 3 82 20 -7
7 -12 19 -12 29 0 9 -11 28 -25 43 -21 23 -32 26 -90 26 -45 0 -65 -4 -65 -12z"/>
<path d="M4840 4950 c0 -6 31 -11 70 -11 39 -1 75 -2 82 -3 6 -1 13 5 16 12 3
9 -18 12 -82 12 -51 0 -86 -4 -86 -10z"/>
<path d="M4075 4943 c-47 -10 -201 -78 -210 -93 -3 -4 19 -26 49 -49 50 -39
91 -51 111 -33 18 15 117 52 141 52 31 0 54 10 54 24 0 6 -18 32 -41 59 -40
46 -53 51 -104 40z"/>
<path d="M3714 4882 c-22 -14 -174 -225 -174 -241 0 -21 19 -41 40 -41 9 0 24
15 35 33 10 17 54 69 97 114 43 45 78 86 78 91 0 11 -43 52 -56 52 -5 0 -14
-4 -20 -8z"/>
<path d="M3774 4769 c-30 -29 -78 -84 -106 -122 -57 -77 -57 -85 4 -120 l36
-21 78 80 c44 45 97 95 119 112 l40 32 -40 36 c-68 61 -69 61 -131 3z"/>
<path d="M4353 4813 c-24 -2 -43 -7 -43 -9 0 -3 16 -25 35 -48 38 -47 42 -56
22 -56 -8 0 -33 23 -56 50 -56 66 -80 67 -238 7 -29 -10 -53 -23 -53 -27 0 -4
20 -23 45 -41 40 -31 58 -59 37 -59 -5 0 -31 16 -58 35 -27 19 -57 35 -67 35
-36 0 -227 -180 -227 -214 0 -7 18 -26 40 -41 l40 -27 82 67 c70 57 172 116
253 145 60 22 116 30 273 36 95 4 175 11 178 15 8 13 -45 118 -66 129 -18 10
-107 11 -197 3z"/>
<path d="M4620 4788 c0 -34 36 -105 59 -118 20 -10 131 -15 131 -5 0 3 -12 34
-26 70 -21 53 -30 65 -49 65 -12 0 -43 3 -69 6 -44 6 -46 6 -46 -18z"/>
<path d="M3411 4648 c-18 -41 -70 -159 -121 -273 -72 -161 -73 -165 -59 -181
23 -28 45 -15 69 39 13 28 59 125 103 215 l78 162 -21 35 c-12 19 -25 35 -28
35 -4 0 -14 -15 -21 -32z"/>
<path d="M3485 4550 c-14 -22 -25 -42 -25 -45 0 -5 -19 -46 -116 -252 -19 -39
-34 -75 -34 -80 0 -5 12 -16 26 -23 24 -13 27 -12 45 10 10 14 19 31 19 39 0
7 36 88 80 178 44 91 80 171 80 179 0 12 -29 34 -44 34 -3 0 -17 -18 -31 -40z"/>
<path d="M3586 4514 c-9 -8 -30 -45 -47 -82 -80 -171 -97 -209 -103 -236 -7
-27 -6 -28 21 -22 37 10 73 33 80 54 4 9 37 66 75 125 37 60 68 113 68 117 0
9 -62 60 -73 60 -3 0 -13 -7 -21 -16z"/>
<path d="M3670 4383 c-19 -32 -52 -85 -72 -117 -21 -33 -38 -67 -38 -76 0 -17
35 -61 48 -59 4 0 39 43 77 96 39 53 80 107 92 122 30 34 29 45 -6 70 -46 33
-63 27 -101 -36z"/>
<path d="M3034 4328 c8 -39 47 -83 98 -109 46 -24 48 -24 48 2 0 29 -56 106
-90 124 -48 25 -64 20 -56 -17z"/>
<path d="M3440 4130 c0 -5 9 -10 20 -10 11 0 20 5 20 10 0 6 -9 10 -20 10 -11
0 -20 -4 -20 -10z"/>
<path d="M3283 4103 c-8 -20 18 -68 37 -68 16 0 34 49 26 70 -7 20 -55 19 -63
-2z"/>
<path d="M3520 4111 c0 -10 30 -24 37 -17 3 3 2 9 -2 15 -8 13 -35 15 -35 2z"/>
<path d="M3414 4075 c-8 -19 2 -45 16 -45 5 0 10 14 10 30 0 31 -16 41 -26 15z"/>
<path d="M3480 4048 c-11 -12 -20 -29 -20 -39 0 -9 -7 -19 -15 -23 -25 -9 -17
-26 14 -26 56 0 119 87 75 104 -25 10 -32 7 -54 -16z"/>
<path d="M3360 4022 c0 -10 5 -23 12 -30 14 -14 48 -16 48 -4 0 10 -43 52 -53
52 -4 0 -7 -8 -7 -18z"/>
<path d="M5080 5890 c0 -5 9 -10 21 -10 11 0 17 5 14 10 -3 6 -13 10 -21 10
-8 0 -14 -4 -14 -10z"/>
<path d="M4492 3213 c-24 -150 -34 -208 -43 -237 -5 -16 -9 -42 -9 -59 l0 -29
68 7 c80 8 83 10 78 38 -3 12 -10 51 -16 87 -6 36 -15 83 -20 105 -5 22 -14
68 -21 103 -7 34 -16 62 -19 62 -3 0 -12 -35 -18 -77z"/>
<path d="M4125 2357 c-4 -8 -5 -34 -3 -58 l3 -44 53 1 c73 2 102 41 67 88 -19
25 -112 36 -120 13z"/>
<path d="M4394 2356 c-3 -8 -4 -31 -2 -52 3 -39 3 -39 50 -42 40 -3 49 0 63
21 19 30 5 72 -29 81 -37 10 -76 6 -82 -8z"/>
<path d="M4908 2364 c-5 -4 -8 -56 -8 -116 l0 -108 43 0 c51 0 70 16 85 72 12
45 1 104 -25 130 -21 20 -83 35 -95 22z"/>
<path d="M5194 1936 c-3 -8 -4 -31 -2 -52 3 -39 3 -39 50 -42 40 -3 49 0 63
21 19 30 5 72 -29 81 -37 10 -76 6 -82 -8z"/>
</g>
</svg>
