<?xml version="1.0" standalone="no"?>
<!DOCTYPE svg PUBLIC "-//W3C//DTD SVG 20010904//EN"
 "http://www.w3.org/TR/2001/REC-SVG-20010904/DTD/svg10.dtd">
<svg version="1.0" xmlns="http://www.w3.org/2000/svg"
 width="229.000000pt" height="220.000000pt" viewBox="0 0 229.000000 220.000000"
 preserveAspectRatio="xMidYMid meet">

<g transform="translate(0.000000,220.000000) scale(0.100000,-0.100000)"
fill="#000000" stroke="none">
<path d="M2004 2189 c-67 -19 -71 -31 -112 -327 -21 -150 -35 -272 -31 -272 7
0 14 45 50 312 20 155 23 167 40 158 43 -23 126 0 154 44 22 33 13 69 -20 84
-29 14 -38 14 -81 1z"/>
<path d="M1630 2140 c0 -8 3 -31 6 -51 5 -30 10 -36 25 -32 28 8 66 -22 79
-62 7 -20 14 -34 17 -31 13 12 -22 79 -54 104 -20 15 -44 40 -55 57 -10 16
-18 23 -18 15z"/>
<path d="M1652 2020 c0 -14 2 -19 5 -12 2 6 2 18 0 25 -3 6 -5 1 -5 -13z"/>
<path d="M2158 2010 c-23 -23 -29 -37 -26 -58 3 -15 18 -109 34 -209 27 -170
44 -229 44 -151 0 20 14 56 38 93 45 73 49 128 12 193 -13 23 -25 40 -27 38
-2 -2 5 -19 16 -37 25 -40 27 -98 6 -139 -14 -27 -42 -50 -62 -50 -5 0 -15 39
-21 86 -7 47 -15 99 -19 115 -5 27 -4 29 27 29 35 0 90 48 90 79 0 49 -67 56
-112 11z"/>
<path d="M1662 1970 c0 -14 2 -19 5 -12 2 6 2 18 0 25 -3 6 -5 1 -5 -13z"/>
<path d="M1309 1949 c0 -2 -13 -89 -28 -194 l-27 -189 -50 3 c-41 2 -54 -2
-77 -23 -29 -27 -36 -73 -15 -94 31 -31 132 4 143 50 11 51 64 442 60 447 -3
2 -5 2 -6 0z m-64 -408 c7 -12 -61 -68 -93 -76 -36 -9 -50 10 -26 36 33 37
105 61 119 40z"/>
<path d="M1672 1920 c0 -14 2 -19 5 -12 2 6 2 18 0 25 -3 6 -5 1 -5 -13z"/>
<path d="M1741 1924 c0 -11 3 -14 6 -6 3 7 2 16 -1 19 -3 4 -6 -2 -5 -13z"/>
<path d="M1609 1859 c-27 -27 -22 -63 11 -67 32 -4 70 31 70 63 0 21 -5 25
-30 25 -17 0 -39 -9 -51 -21z"/>
<path d="M1955 1803 c5 -24 65 -441 65 -448 0 -1 -14 -2 -30 -2 -38 0 -82 -31
-95 -67 -19 -55 32 -83 92 -51 51 28 56 53 35 193 -11 67 -17 122 -15 122 2 0
26 -11 52 -25 72 -36 94 -68 88 -129 -3 -34 -2 -44 5 -32 10 19 7 68 -11 151
-6 28 -13 69 -15 93 -6 57 -24 83 -96 139 -33 25 -60 52 -60 59 0 7 -4 16 -10
19 -6 4 -8 -5 -5 -22z m104 -110 c18 -14 39 -40 46 -57 15 -35 11 -47 -8 -24
-6 8 -33 30 -59 47 -27 18 -48 34 -48 36 0 2 -3 11 -7 20 -5 14 -2 16 18 10
13 -4 39 -19 58 -32z m3 -86 c38 -29 76 -82 66 -92 -7 -7 -116 83 -128 105
-17 31 11 26 62 -13z"/>
<path d="M1392 1773 c-30 -15 -62 -57 -62 -83 0 -5 9 -19 20 -30 25 -25 95
-27 128 -4 13 9 26 14 29 11 3 -3 -13 -109 -35 -234 -22 -125 -38 -230 -36
-233 3 -2 15 7 27 22 12 14 38 36 57 48 84 55 124 112 140 199 5 25 14 67 21
93 9 35 9 55 1 80 l-11 33 1 -35 c2 -72 -3 -90 -33 -124 -26 -31 -134 -84
-145 -73 -2 2 7 67 21 146 30 170 30 156 5 181 -25 25 -82 26 -128 3z m240
-350 c-11 -21 -31 -48 -44 -59 -21 -20 -99 -64 -113 -64 -15 0 -1 35 28 65 38
41 141 114 145 104 2 -4 -6 -25 -16 -46z"/>
<path d="M1741 1784 c-3 -36 41 -379 50 -391 39 -46 147 37 117 90 -16 30 -86
17 -114 -21 -8 -11 -14 20 -23 124 -12 124 -27 228 -30 198z"/>
<path d="M940 1655 c-14 -17 -7 -45 12 -45 23 1 51 28 45 45 -8 19 -41 20 -57
0z"/>
<path d="M1001 1594 c0 -11 3 -14 6 -6 3 7 2 16 -1 19 -3 4 -6 -2 -5 -13z"/>
<path d="M809 1541 c-34 -35 -35 -44 -9 -136 18 -62 21 -48 4 19 -6 24 -4 26
24 26 52 0 93 75 60 108 -20 20 -48 14 -79 -17z m74 -9 c-9 -25 -54 -72 -70
-72 -25 0 -13 38 23 69 36 32 58 34 47 3z"/>
<path d="M1012 1530 c0 -14 2 -19 5 -12 2 6 2 18 0 25 -3 6 -5 1 -5 -13z"/>
<path d="M1000 1364 c0 -6 -11 -71 -25 -145 -27 -143 -32 -206 -9 -100 8 36
16 67 19 69 9 9 66 -52 72 -78 l7 -25 7 30 c15 67 10 111 -18 151 -14 21 -32
55 -39 74 -7 19 -13 30 -14 24z m40 -116 c20 -27 30 -53 30 -77 l0 -35 -35 54
c-30 47 -46 100 -30 100 3 0 18 -19 35 -42z"/>
<path d="M1205 1346 c-62 -27 -62 -25 -57 -306 3 -149 4 -161 16 -129 7 20 34
62 59 94 46 56 51 70 47 130 -2 31 -25 95 -34 95 -3 0 2 -16 10 -35 32 -77 1
-164 -68 -188 -17 -6 -18 4 -18 113 l0 120 36 0 c26 0 43 8 65 29 35 35 37 55
7 75 -26 19 -25 19 -63 2z"/>
<path d="M821 1320 c0 -8 6 -37 13 -65 8 -27 15 -43 15 -35 0 8 -6 38 -13 65
-8 28 -15 43 -15 35z"/>
<path d="M515 1280 c16 -76 23 -103 24 -88 1 14 5 15 30 7 41 -14 54 -33 62
-88 l6 -46 2 49 c1 48 -1 52 -53 100 -29 28 -59 60 -65 71 -10 18 -11 18 -6
-5z"/>
<path d="M852 1185 c0 -11 3 -29 8 -40 11 -25 11 1 0 35 -6 20 -8 21 -8 5z"/>
<path d="M745 1168 c-11 -6 -23 -16 -27 -22 -4 -6 -7 -83 -6 -171 l2 -160 3
138 c4 134 4 137 26 137 33 0 67 28 67 54 0 34 -29 44 -65 24z"/>
<path d="M542 1150 c0 -14 4 -38 8 -55 7 -27 8 -27 8 -5 0 14 -4 39 -8 55 -7
27 -8 27 -8 5z"/>
<path d="M1061 1064 c0 -11 3 -14 6 -6 3 7 2 16 -1 19 -3 4 -6 -2 -5 -13z"/>
<path d="M561 1048 c-1 -10 -7 -18 -15 -18 -25 0 -66 -41 -66 -66 0 -30 18
-38 53 -25 37 14 49 42 38 88 -5 21 -9 30 -10 21z"/>
<path d="M864 1050 c-33 -13 -55 -49 -43 -72 13 -25 69 -24 103 3 58 46 12 98
-60 69z"/>
<path d="M584 904 c3 -9 6 -28 6 -43 0 -21 9 -34 40 -54 23 -14 38 -22 34 -16
-3 6 -7 21 -8 34 -2 13 -20 39 -40 59 -21 19 -35 28 -32 20z m51 -54 c10 -11
16 -22 14 -25 -7 -6 -49 24 -49 36 0 15 16 10 35 -11z"/>
<path d="M390 867 c-14 -7 -25 -21 -25 -32 0 -17 7 -20 43 -20 39 -1 42 1 42
26 0 15 -7 29 -16 33 -19 7 -14 8 -44 -7z"/>
<path d="M510 791 c0 -33 -43 -75 -70 -68 -13 3 -19 -8 -26 -53 l-10 -58 36
27 c40 29 59 51 59 66 0 6 -4 2 -10 -8 -13 -22 -69 -52 -69 -37 0 7 12 21 26
33 63 52 74 67 74 97 0 16 -2 30 -5 30 -3 0 -5 -13 -5 -29z"/>
<path d="M432 770 c0 -14 2 -19 5 -12 2 6 2 18 0 25 -3 6 -5 1 -5 -13z"/>
<path d="M601 774 c0 -11 3 -14 6 -6 3 7 2 16 -1 19 -3 4 -6 -2 -5 -13z"/>
<path d="M252 720 c0 -14 2 -19 5 -12 2 6 2 18 0 25 -3 6 -5 1 -5 -13z"/>
<path d="M611 720 c-3 -54 30 -77 62 -42 24 26 6 50 -27 34 -21 -9 -25 -8 -29
6 -4 13 -5 13 -6 2z"/>
<path d="M242 650 c0 -14 2 -19 5 -12 2 6 2 18 0 25 -3 6 -5 1 -5 -13z"/>
<path d="M302 650 c0 -14 2 -19 5 -12 2 6 2 18 0 25 -3 6 -5 1 -5 -13z"/>
<path d="M175 584 c-20 -20 -15 -38 12 -42 24 -4 53 22 52 46 0 14 -2 14 -6 2
-7 -19 -33 -40 -50 -40 -22 0 -14 20 12 30 28 11 33 20 11 20 -8 0 -22 -7 -31
-16z"/>
<path d="M332 548 c-18 -18 -14 -38 7 -38 22 0 45 25 36 40 -8 13 -28 13 -43
-2z"/>
<path d="M243 445 c-3 -9 -3 -18 0 -22 10 -10 37 6 37 22 0 20 -29 20 -37 0z"/>
<path d="M181 374 c0 -11 3 -14 6 -6 3 7 2 16 -1 19 -3 4 -6 -2 -5 -13z"/>
<path d="M192 325 c-1 -11 -12 -25 -24 -30 -30 -13 -37 -55 -10 -55 29 0 44
24 39 67 -2 21 -4 29 -5 18z"/>
</g>
</svg>
